<svg height="512" viewBox="0 0 512 512" width="512" xmlns="http://www.w3.org/2000/svg"><circle cx="144" cy="392" fill="#57a4ff" r="64"/><circle cx="360" cy="392" fill="#57a4ff" r="64"/><g fill="#004fac"><path d="m464 448h-58.815a71.977 71.977 0 0 0 -62.819-125.808l-18.822-50.192h36.456v8h-8a8 8 0 0 0 0 16h8a16.019 16.019 0 0 0 16-16v-8a16.019 16.019 0 0 0 -16-16h-72a8 8 0 0 0 0 16h18.456l6 16h-89.615l-5.383-32h14.542a8 8 0 0 0 0-16h-48a8 8 0 0 0 0 16h17.233l6.369 37.864-27.089 36.118a71.958 71.958 0 0 0 -81.698 118.018h-82.815a8 8 0 0 0 0 16h448a8 8 0 0 0 0-16zm-104-112a56.044 56.044 0 1 1 -26.946 6.927l19.456 51.882a8 8 0 1 0 14.98-5.618l-19.459-51.891a55.952 55.952 0 0 1 11.969-1.3zm-58.157-32-64.456 70.482-11.856-70.482zm-90.577 11.646 11.497 68.354h-7.218a71.848 71.848 0 0 0 -22.245-44.4zm-27.628 36.836a55.881 55.881 0 0 1 15.781 31.518h-39.419zm-95.638 39.518a55.978 55.978 0 0 1 82.847-49.13l-33.247 44.33a8 8 0 0 0 6.4 12.8h55.419a56 56 0 0 1 -111.419-8zm101.185 56a71.958 71.958 0 0 0 26.36-48h16.455c.188 0 .374-.006.559-.019a8 8 0 0 0 5.563-2.594l81.808-89.457 7.466 19.908a71.918 71.918 0 0 0 -12.581 120.162z"/><path d="m496 448h-8a8 8 0 0 0 0 16h8a8 8 0 0 0 0-16z"/><path d="m300 192h120a28 28 0 0 0 0-56h-26a48.006 48.006 0 0 0 -94.668.008 28 28 0 0 0 .668 55.992zm-8.491-36.478a11.946 11.946 0 0 1 8.491-3.522h6.667a8 8 0 0 0 8-8 32 32 0 0 1 64 0 8 8 0 0 0 8 8h33.333a12 12 0 0 1 0 24h-120a12 12 0 0 1 -8.491-20.478z"/><path d="m88 160h144a32 32 0 0 0 0-64h-32.569a56.006 56.006 0 0 0 -110.862 0h-.569a32 32 0 0 0 0 64zm-11.319-43.307a15.928 15.928 0 0 1 11.319-4.693h8a8 8 0 0 0 8-8 40 40 0 0 1 80 0 8 8 0 0 0 8 8h40a16 16 0 0 1 0 32h-144a16 16 0 0 1 -11.319-27.307z"/></g></svg>