<?xml version="1.0" encoding="utf-8"?>
<!-- Generator: Adobe Illustrator 19.0.0, SVG Export Plug-In . SVG Version: 6.00 Build 0)  -->
<svg version="1.1" id="Layer_1" xmlns="http://www.w3.org/2000/svg" xmlns:xlink="http://www.w3.org/1999/xlink" x="0px" y="0px"
	 viewBox="-173 2.4 612 556.6" style="enable-background:new -173 2.4 612 556.6;" xml:space="preserve">
<style type="text/css">
	.st0{display:none;stroke:#000000;stroke-miterlimit:10;}
	.st1{fill:none;stroke:#FFFFFF;stroke-miterlimit:10;}
	.st2{fill:#FFFFFF;}
	.st3{fill:none;stroke:#FFFFFF;stroke-width:19;stroke-linecap:square;stroke-miterlimit:10;}
</style>
<rect id="XMLID_14_" x="-177.4" y="2.4" class="st0" width="616.4" height="556.6"/>
<g id="XMLID_15_">
	<path id="XMLID_23_" class="st1" d="M384.5,280.9c0,143.6-116.4,260.1-260.1,260.1s-260.1-116.5-260.1-260.1"/>
	<circle id="XMLID_16_" class="st2" cx="124.4" cy="280.9" r="19.4"/>
	<path id="XMLID_20_" class="st2" d="M-54.9,469.2L-54.9,469.2c-2.7-2.6-2.9-7-0.2-9.7l175.3-184.2c2.6-2.7,7-2.9,9.7-0.2l0,0
		c2.7,2.6,2.9,7,0.2,9.7L-45.2,469C-47.8,471.7-52.1,471.9-54.9,469.2z"/>
	<path id="XMLID_22_" class="st2" d="M125.5,20.9L125.5,20.9c3.8,0,6.9,3.1,6.8,6.9L130.1,534c0,3.8-3.1,6.9-6.9,6.8l0,0
		c-3.8,0-6.9-3.1-6.8-6.9l2.2-506.2C118.6,24,121.7,20.9,125.5,20.9z"/>
	<path id="XMLID_18_" class="st2" d="M-135.6,280.9L-135.6,280.9c0-3.8,3.1-6.9,6.9-6.9h506.3c3.8,0,6.9,3.1,6.9,6.9l0,0
		c0,3.8-3.1,6.9-6.9,6.9h-506.3C-132.6,287.8-135.6,284.7-135.6,280.9z"/>
	<path id="XMLID_19_" class="st2" d="M-52.9,90.7L-52.9,90.7c2.8-2.6,7.1-2.4,9.7,0.3L302,461.4c2.6,2.8,2.4,7.1-0.3,9.7l0,0
		c-2.8,2.6-7.1,2.4-9.7-0.3L-53.3,100.4C-55.9,97.7-55.7,93.3-52.9,90.7z"/>
	<path id="XMLID_21_" class="st3" d="M-135.7,280.9c0-143.6,116.4-260.1,260.1-260.1"/>
	<path id="XMLID_24_" class="st1" d="M124.4,551.3c-149.1,0-268.5-121.3-268.5-270.4 M-125.4,280.9c0,137.7,112.1,249.8,249.8,249.8
		"/>
</g>
</svg>
