<?xml version="1.0"?>
<svg xmlns="http://www.w3.org/2000/svg" xmlns:xlink="http://www.w3.org/1999/xlink" viewBox="0 0 64 64" width="512" height="512"><defs><linearGradient id="New_Gradient_Swatch_10" y1="31.514" x2="65.069" y2="31.514" gradientUnits="userSpaceOnUse"><stop offset="0" stop-color="#bc4e9c"/><stop offset="1" stop-color="#f80759"/></linearGradient><linearGradient id="New_Gradient_Swatch_10-2" y1="28.5" x2="65.069" y2="28.5" gradientTransform="translate(26.45 -6.855) rotate(45)" xlink:href="#New_Gradient_Swatch_10"/><linearGradient id="New_Gradient_Swatch_10-3" y1="34" x2="65.069" y2="34" gradientTransform="translate(37.222 -21.861) rotate(45)" xlink:href="#New_Gradient_Swatch_10"/></defs><g id="Gradient_outline" data-name="Gradient outline"><path d="M61,26H58V25a7.009,7.009,0,0,0-7-7H35a1,1,0,0,0-.8.4l-2.029,2.706L30.9,18.553A1,1,0,0,0,30,18H13a7.009,7.009,0,0,0-7,7v1H3a1,1,0,0,0-1,1v8a1,1,0,0,0,1,1H6v1c0,3.841,2.435,6.719,5.909,7L22.92,45c.264.021.526.031.788.031A9.664,9.664,0,0,0,30.259,42.5,8.642,8.642,0,0,0,32,40.259,8.642,8.642,0,0,0,33.741,42.5,9.661,9.661,0,0,0,40.3,45.027c.264,0,.528-.01.794-.031L52.08,44c3.485-.278,5.92-3.156,5.92-7V36h3a1,1,0,0,0,1-1V27A1,1,0,0,0,61,26ZM6,34H4V28H6Zm7-14H29.382l1,2H13a3,3,0,0,0-3,3H8A5.006,5.006,0,0,1,13,20ZM8,27h2v8H8Zm23,9.334a6.347,6.347,0,0,1-2.1,4.7A7.654,7.654,0,0,1,23.091,43L12.08,42C9.262,41.778,8,39.328,8,37h2a3.2,3.2,0,0,0,2.9,2.995l9.973,1a6.153,6.153,0,0,0,.777.049,5.694,5.694,0,0,0,3.744-1.347A4.767,4.767,0,0,0,29,36V35a1,1,0,0,1,1-1h1ZM31,32H30a3,3,0,0,0-3,3v1a2.787,2.787,0,0,1-.927,2.193,3.822,3.822,0,0,1-2.973.812l-9.719-.972,6.326-6.326-1.414-1.414L12,36.586V25a1,1,0,0,1,1-1H29.586l-9.293,9.293,1.414,1.414L31,25.414Zm2-8H49.586l-5.293,5.293,1.414,1.414,6.167-6.167A.974.974,0,0,1,52,25V37a1.248,1.248,0,0,1-1.1,1.005l-10.01,1a3.874,3.874,0,0,1-2.994-.828,2.556,2.556,0,0,1-.312-.348l6.123-6.123-1.414-1.414L37,35.586V35a3,3,0,0,0-3-3H33ZM51.909,42,40.92,43A7.708,7.708,0,0,1,35.1,41.03a6.347,6.347,0,0,1-2.1-4.7V34h1a1,1,0,0,1,1,1v1a4.767,4.767,0,0,0,1.562,3.668,5.769,5.769,0,0,0,3.825,1.366A6.593,6.593,0,0,0,41.1,41l10.01-1A3.2,3.2,0,0,0,54,37h2C56,39.328,54.738,41.778,51.909,42ZM56,35H54V27h2ZM54,25a3,3,0,0,0-3-3H34l1.5-2H51a5.006,5.006,0,0,1,5,5Zm6,9H58V28h2Z" style="fill:url(#New_Gradient_Swatch_10)"/><rect x="19.379" y="27.5" width="4.243" height="2" transform="translate(-13.855 23.55) rotate(-45)" style="fill:url(#New_Gradient_Swatch_10-2)"/><rect x="42.172" y="33" width="5.657" height="2" transform="translate(-10.861 41.778) rotate(-45)" style="fill:url(#New_Gradient_Swatch_10-3)"/></g></svg>
