<?xml version="1.0" encoding="utf-8"?>
<!-- Generator: Adobe Illustrator 19.0.0, SVG Export Plug-In . SVG Version: 6.00 Build 0)  -->
<svg version="1.1" id="Layer_1" xmlns="http://www.w3.org/2000/svg" xmlns:xlink="http://www.w3.org/1999/xlink" x="0px" y="0px"
	 viewBox="0 0 193 105" style="enable-background:new 0 0 193 105;" xml:space="preserve">
<style type="text/css">
	.st0{opacity:0.56;}
	.st1{fill:url(#XMLID_211_);}
	.st2{fill:url(#XMLID_212_);}
	.st3{fill:url(#XMLID_213_);}
</style>
<g id="Gradient_outline" class="st0">
	
		<linearGradient id="XMLID_211_" gradientUnits="userSpaceOnUse" x1="157.088" y1="115.6241" x2="343.4174" y2="115.6241" gradientTransform="matrix(0.987 -0.1605 0.1605 0.987 -167.0918 -20.3914)">
		<stop  offset="0" style="stop-color:#BC4E9C"/>
		<stop  offset="1" style="stop-color:#F80759"/>
	</linearGradient>
	<path id="XMLID_172_" class="st1" d="M176.4,24.9l-8.5,1.4l-0.5-2.8c-1.8-10.9-12.1-18.3-23-16.6l-45.2,7.4
		c-0.9,0.1-1.7,0.7-2.1,1.5l-4.5,8.6l-4.8-6.6c-0.6-0.9-1.7-1.3-2.8-1.1l-48,7.8c-10.9,1.8-18.3,12.1-16.6,23l0.5,2.8l-8.5,1.4
		c-1.6,0.3-2.6,1.7-2.4,3.3l3.7,22.6c0.3,1.6,1.7,2.6,3.3,2.4l8.5-1.4l0.5,2.8c1.8,10.9,10,17.9,19.9,17.1l31.6-2.2
		c0.8-0.1,1.5-0.2,2.2-0.3c6.9-1.1,13-4.7,17.4-10.2c1.7-2.1,3-4.6,3.9-7.1c1.7,2.2,3.7,4,6,5.5c5.8,3.8,12.8,5.3,19.7,4.1
		c0.7-0.1,1.5-0.3,2.2-0.5l30.6-7.9c9.7-2.4,15.3-11.6,13.5-22.5l-0.5-2.8l8.5-1.4c1.6-0.3,2.6-1.7,2.4-3.3l-3.7-22.6
		C179.4,25.7,178,24.6,176.4,24.9z M24.6,72.8L19,73.7l-2.8-17l5.7-0.9L24.6,72.8z M38,30l46.3-7.5l3.7,5.2l-49.1,8
		c-4.7,0.8-7.9,5.2-7.1,9.9l-5.7,0.9C24.9,38.6,30.2,31.3,38,30z M27.1,52.1l5.7-0.9l3.7,22.6l-5.7,0.9L27.1,52.1z M96.4,67.9
		c0.8,5.1-0.6,10.2-3.8,14.2c-3.8,4.8-9.4,7.8-15.5,8.2l-31.6,2.2c-8.1,0.7-12.8-5.7-13.8-12.3l5.7-0.9c1,4.4,5.1,7.4,9.6,7.1
		l28.6-1.8c0.7,0,1.5-0.1,2.2-0.2c3.9-0.6,7.4-2.5,10-5.5c2.6-3.1,3.6-7.2,2.8-11.2L90.1,65c-0.3-1.6,0.8-3,2.4-3.3l2.8-0.5
		L96.4,67.9z M94.4,55.6l-2.8,0.5c-4.7,0.8-7.9,5.2-7.1,9.9l0.5,2.8c0.5,2.3-0.1,4.8-1.6,6.6c-2,2.3-5,3.6-8,3.7l-27.9,1.7l15-20.8
		l-4.6-3.3L42.8,77.3l-5.3-32.7c-0.3-1.6,0.8-3,2.4-3.3l46.9-7.6l-22,30.5l4.6,3.3l22-30.5L94.4,55.6z M96.3,32.1l46.9-7.6
		l-12.5,17.4l4.6,3.3L149.9,25c0.3,0.4,0.5,0.8,0.6,1.2l5.5,33.9c0,1.6-1.1,2.9-2.6,3.3l-27.8,7.4c-3,0.9-6.2,0.6-8.8-1
		c-0.4-0.2-0.7-0.5-1-0.8L130.1,49l-4.6-3.3L113,63l-0.3-1.7c-0.8-4.7-5.2-7.9-9.9-7.1l-2.8,0.5L96.3,32.1z M158.1,74.3l-30.6,7.9
		c-5.9,1.5-12.2,0.4-17.4-2.9c-4.3-2.8-7.3-7.3-8.1-12.3l-1.1-6.6l2.8-0.5c1.6-0.3,3,0.8,3.3,2.4l0.5,2.8c0.5,4,2.8,7.5,6.1,9.6
		c3.4,2.1,7.5,2.8,11.4,2.1c0.7-0.1,1.3-0.2,2-0.4l27.8-7.4c4.4-1.1,7.3-5.3,6.8-9.8l5.7-0.9C168.4,64.9,166,72.4,158.1,74.3z
		 M166.4,52.6l-5.7,0.9l-3.7-22.6l5.7-0.9L166.4,52.6z M156.2,25.3c-0.8-4.7-5.2-7.9-9.9-7.1l-48,7.8l3.3-6.3l43.8-7.1
		c7.8-1.3,15.2,4,16.4,11.8L156.2,25.3z M177.2,48l-5.7,0.9l-2.8-17l5.7-0.9L177.2,48z"/>
	
		<linearGradient id="XMLID_212_" gradientUnits="userSpaceOnUse" x1="-313.7395" y1="440.8764" x2="-290.4483" y2="440.8764" gradientTransform="matrix(7.8962 -1.2843 -1.2843 -7.8962 3048.7043 3138.3298)">
		<stop  offset="0" style="stop-color:#BC4E9C"/>
		<stop  offset="1" style="stop-color:#F80759"/>
	</linearGradient>
	<polygon id="XMLID_171_" class="st2" points="60,53.4 67.1,43.5 71.8,46.9 64.7,56.7 	"/>
	
		<linearGradient id="XMLID_213_" gradientUnits="userSpaceOnUse" x1="-313.7396" y1="438.9079" x2="-290.4484" y2="438.9079" gradientTransform="matrix(7.8962 -1.2843 -1.2843 -7.8962 3048.7056 3138.3313)">
		<stop  offset="0" style="stop-color:#BC4E9C"/>
		<stop  offset="1" style="stop-color:#F80759"/>
	</linearGradient>
	<polygon id="XMLID_139_" class="st3" points="127.8,59.7 137.3,46.6 141.9,50 132.4,63.1 	"/>
</g>
</svg>
