<?xml version="1.0" encoding="utf-8"?>
<!-- Generator: Adobe Illustrator 19.0.0, SVG Export Plug-In . SVG Version: 6.00 Build 0)  -->
<svg version="1.1" id="Layer_1" xmlns="http://www.w3.org/2000/svg" xmlns:xlink="http://www.w3.org/1999/xlink" x="0px" y="0px"
	 viewBox="0 0 206 185" style="enable-background:new 0 0 206 185;" xml:space="preserve">
<style type="text/css">
	.st0{opacity:0.33;fill:#FFDC32;}
	.st1{opacity:0.34;}
	.st2{fill:#19D8B4;}
</style>
<circle id="XMLID_73_" class="st0" cx="127.5" cy="72.6" r="63.5"/>
<g id="_07-helmet" class="st1">
	<path id="XMLID_69_" class="st2" d="M131.1,39.5c-21.1-10-44.5-11.6-65.8-4.7C21.6,49,6.9,89,24.9,144.6c1.1,3.5,4.8,5.3,8.3,4.2
		l34.9-11.3l37.5,19.1c6.9,9.5,25.1,22.8,52.1,14l-4.1-12.5c-20.4,6.6-32-3.1-36.2-7.8l19.1-55.7l28.1-9.1c3.5-1.1,5.3-4.8,4.2-8.3
		C164.1,62.7,149.7,48.3,131.1,39.5z M106.3,142.2L76.4,127l4-14.2l40.4-13.1L106.3,142.2z M73,101.4c-2.1,0.7-3.7,2.4-4.3,4.5
		l-5.5,19.4l-27.8,9c-8-28.6-11.6-72.2,33.8-86.9c18.2-5.9,38.1-4.4,56.2,4.1c12.4,5.9,22.8,14.8,28.1,23.9L73,101.4z"/>
	<path id="XMLID_68_" class="st2" d="M41.8,111.5l12.5-4.1l4.1,12.5L45.8,124L41.8,111.5z"/>
	<path id="XMLID_8_" class="st2" d="M48.4,67.9l50-16.2l4.1,12.5l-50,16.2L48.4,67.9z"/>
	<path id="XMLID_7_" class="st2" d="M42,90.7l81.2-26.3l4.1,12.5L46,103.2L42,90.7z"/>
</g>
</svg>
