  <svg version="1.1" id="Layer_1" xmlns="http://www.w3.org/2000/svg"
                        xmlns:xlink="http://www.w3.org/1999/xlink" x="0px" y="0px" viewBox="0 0 158.8 39.8"
                        style="enable-background:new 0 0 158.8 39.8;" xml:space="preserve">
                        <g id="XMLID_53_">
                            <path id="XMLID_54_" d="M31.4,6.1L22.4,18v0.2l14.4-1.9v6.5l-14.4-1.7v0.2l9.2,11.5l-6,3.4l-5.7-13.4h-0.2l-6.2,13.5l-5.4-3.4
                       L17,21.1V21L2.9,22.8v-6.5l14,1.8v-0.2l-9-11.7l5.8-3.3l5.9,13.3h0.2l5.8-13.4L31.4,6.1z" />
                            <path id="XMLID_56_" d="M71.1,6.1L62,18v0.2l14.4-1.9v6.5L62,21.1v0.2l9.2,11.5l-6,3.4l-5.7-13.4h-0.2L53,36.2l-5.4-3.4l9.1-11.7
                       V21l-14.1,1.8v-6.5l14,1.8v-0.2l-9-11.7l5.8-3.3l5.9,13.3h0.2l5.8-13.4L71.1,6.1z" />
                            <path id="XMLID_58_" d="M110.7,6.1L101.6,18v0.2l14.4-1.9v6.5l-14.4-1.7v0.2l9.2,11.5l-6,3.4L99,22.8h-0.2l-6.2,13.5l-5.4-3.4
                       l9.1-11.7V21l-14.1,1.8v-6.5l14,1.8v-0.2l-9-11.7L93,2.9L99,16.2h0.2L105,2.8L110.7,6.1z" />
                            <path id="XMLID_60_" d="M150.3,6.1L141.3,18v0.2l14.4-1.9v6.5l-14.4-1.7v0.2l9.2,11.5l-6,3.4l-5.7-13.4h-0.2l-6.2,13.5l-5.4-3.4
                       l9.1-11.7V21l-14.1,1.8v-6.5l14,1.8v-0.2l-9-11.7l5.8-3.3l5.9,13.3h0.2l5.8-13.4L150.3,6.1z" />
                        </g>
                    </svg>