<svg version="1.1" id="Layer_1" xmlns="http://www.w3.org/2000/svg"
                        xmlns:xlink="http://www.w3.org/1999/xlink" x="0px" y="0px" viewBox="0 0 64.2 83.6"
                        style="enable-background:new 0 0 64.2 83.6;" xml:space="preserve">
                        <g id="XMLID_117_">
                            <path id="XMLID_118_" d="M59.6,78.2H5.3v-75h54.3V78.2z M6.3,77.2h52.3v-73H6.3V77.2z" />
                            <path id="XMLID_119_" d="M56.9,22.9H7.3V8.6h49.7V22.9z M8.3,21.9h47.7V9.6H8.3V21.9z" />
                            <circle id="XMLID_96_" cx="14.8" cy="37.1" r="6" />
                            <circle id="XMLID_98_" cx="31.8" cy="37.1" r="6" />
                            <circle id="XMLID_99_" cx="48.8" cy="37.1" r="6" />
                            <circle id="XMLID_102_" cx="14.8" cy="53.1" r="6" />
                            <circle id="XMLID_101_" cx="31.8" cy="53.1" r="6" />
                            <circle id="XMLID_100_" cx="48.8" cy="53.1" r="6" />
                            <circle id="XMLID_105_" cx="14.8" cy="69.1" r="6" />
                            <circle id="XMLID_104_" cx="31.8" cy="69.1" r="6" />
                            <circle id="XMLID_103_" cx="48.8" cy="69.1" r="6" />
                            <g id="XMLID_90_">
                                <path id="XMLID_92_" d="M36.4,13.3l-1.1,1.5v0l1.8-0.2v0.8l-1.8-0.2v0l1.2,1.4L35.6,17l-0.7-1.7h0l-0.8,1.7l-0.7-0.4l1.1-1.5v0
                           l-1.8,0.2v-0.8l1.8,0.2v0l-1.1-1.5l0.7-0.4l0.7,1.7h0l0.7-1.7L36.4,13.3z" />
                                <path id="XMLID_125_" d="M41.4,13.3l-1.1,1.5v0l1.8-0.2v0.8l-1.8-0.2v0l1.2,1.4L40.6,17l-0.7-1.7h0l-0.8,1.7l-0.7-0.4l1.1-1.5v0
                           l-1.8,0.2v-0.8l1.8,0.2v0l-1.1-1.5l0.7-0.4l0.7,1.7h0l0.7-1.7L41.4,13.3z" />
                                <path id="XMLID_127_" d="M46.3,13.3l-1.1,1.5v0l1.8-0.2v0.8l-1.8-0.2v0l1.2,1.4L45.6,17l-0.7-1.7h0l-0.8,1.7l-0.7-0.4l1.1-1.5v0
                           l-1.8,0.2v-0.8l1.8,0.2v0l-1.1-1.5l0.7-0.4l0.7,1.7h0l0.7-1.7L46.3,13.3z" />
                                <path id="XMLID_129_" d="M51.3,13.3l-1.1,1.5v0l1.8-0.2v0.8l-1.8-0.2v0l1.2,1.4L50.6,17l-0.7-1.7h0l-0.8,1.7l-0.7-0.4l1.1-1.5v0
                           l-1.8,0.2v-0.8l1.8,0.2v0l-1.1-1.5l0.7-0.4l0.7,1.7h0l0.7-1.7L51.3,13.3z" />
                            </g>
                        </g>
                    </svg>