<?xml version="1.0" encoding="utf-8"?>
<!-- Generator: Adobe Illustrator 19.0.0, SVG Export Plug-In . SVG Version: 6.00 Build 0)  -->
<svg version="1.1" id="Layer_1" xmlns="http://www.w3.org/2000/svg" xmlns:xlink="http://www.w3.org/1999/xlink" x="0px" y="0px"
	 viewBox="0 0 151.1 155" style="enable-background:new 0 0 151.1 155;" xml:space="preserve">
<style type="text/css">
	.st0{opacity:0.5;fill:url(#XMLID_252_);}
</style>
<linearGradient id="XMLID_252_" gradientUnits="userSpaceOnUse" x1="2.8403" y1="77.4992" x2="137.488" y2="77.4992">
	<stop  offset="0" style="stop-color:#ED1E79"/>
	<stop  offset="0.5567" style="stop-color:#ED1D47"/>
	<stop  offset="1" style="stop-color:#ED1C24"/>
</linearGradient>
<path id="XMLID_223_" class="st0" d="M123.8,150.3c-2,0-4-0.4-5.9-1.3v0L10.7,98.4c-4.5-2.1-7.4-6.3-7.8-11.3
	c-0.4-5,1.8-9.6,5.9-12.4l97.4-67.5c4.1-2.8,9.2-3.3,13.7-1.1c4.5,2.1,7.4,6.3,7.8,11.3l9.8,118.1c0.4,5-1.8,9.6-5.9,12.4
	C129.2,149.5,126.5,150.3,123.8,150.3z M113.9,12.7c-1.1,0-2.3,0.3-3.3,1L13.3,81.3c-1.7,1.2-2.6,3.1-2.5,5.2
	c0.2,2.1,1.4,3.8,3.3,4.7l107.2,50.6c1.9,0.9,4,0.7,5.7-0.5c1.7-1.2,2.6-3.1,2.5-5.2L119.7,18c-0.2-2.1-1.4-3.8-3.3-4.7
	C115.6,12.9,114.8,12.7,113.9,12.7z"/>
</svg>
