<?xml version="1.0" encoding="utf-8"?>
<!-- Generator: Adobe Illustrator 19.0.0, SVG Export Plug-In . SVG Version: 6.00 Build 0)  -->
<svg version="1.1" id="Layer_1" xmlns="http://www.w3.org/2000/svg" xmlns:xlink="http://www.w3.org/1999/xlink" x="0px" y="0px"
	 viewBox="-326 256.9 306 49.1" style="enable-background:new -326 256.9 306 49.1;" xml:space="preserve">
<style type="text/css">
	.st0{enable-background:new    ;}
	.st1{fill:#FFDC32;}
</style>
<g class="st0">
	<path class="st1" d="M-304.6,264c-1.1,0.3-2,1-2.6,2c-1,1.4-1.8,2.9-2.1,4.7c-0.2,1.2-0.2,2.4,0.1,3.6c0.2,0.5,0.2,1.1,0.4,1.5
		c0.3,0.7,0.7,1.5,1.1,2.1c0.8,1.4,1.9,2.4,2.9,3.7l2.1,2.7l0.1,0.2c0.9,0.9,1.5,2,2.1,3.1c1.1,2.2,1.9,4.6,2.4,7c0.4,2,0.5,4-0.1,6
		c-0.4,1.4-1.1,2.6-2,3.6c-0.5,0.5-1,0.9-1.5,1.4c-0.1,0.2-0.3,0.3-0.6,0.4c-1.5,0.5-3,0.5-4.5-0.2c-0.5-0.3-1-0.6-1.5-1
		c-0.8-0.5-1.5-1-2.2-1.5c-0.5-0.3-0.8-0.7-0.9-1.2c-0.2-0.5-0.2-0.9,0.2-1.3c0.3-0.5,0.8-0.6,1.4-0.4c0.3,0.2,0.6,0.3,0.8,0.5
		c1,0.7,1.9,1.4,3,2c0.5,0.2,0.8,0.5,1.4,0.5c1,0.1,1.7-0.4,2.3-1.1c1-1.1,1.5-2.5,1.5-3.9c0-0.8,0-1.5-0.1-2.3
		c-0.2-1.6-0.7-3.2-1.3-4.8c-0.6-1.5-1.2-2.8-2.1-4.1c-0.5-0.6-0.9-1.1-1.4-1.6c-0.2-0.2-0.3-0.4-0.5-0.6l-1.2-1.6
		c-0.8-1-1.6-2-2.4-3c-1.1-1.5-1.8-3.2-2.3-5c-0.5-1.6-0.4-3.2-0.1-4.8c0.3-2,1.2-3.8,2.2-5.5c0.8-1.4,1.8-2.3,3.1-3.1
		c0.7-0.5,1.6-0.7,2.5-0.8c0.7-0.1,1.4-0.1,2,0.1c0.5,0.1,1.1,0.2,1.4,0.7c0.4,0.5,0.5,0.9,0.3,1.4c-0.2,0.5-0.6,0.8-1.2,0.8
		c-0.3-0.1-0.6,0-0.8,0C-303.4,263.8-304,263.8-304.6,264z"/>
	<path class="st1" d="M-283.9,304v-0.3l-0.1-2.3l-0.1-1.9l-0.5-5.4l-0.6-4.9l-0.1-1.7c0-0.1,0-0.3,0-0.5c-0.2-1.1-0.8-1.6-1.9-1.7
		c-0.3,0-0.7-0.1-1.1-0.1c-1.1,0-1.6,0.4-2,1.4l-0.2,0.7c-0.3,1.6-0.7,3.2-1.1,4.8c-0.2,0.8-0.4,1.6-0.6,2.4c-0.5,1.8-1,3.6-1.4,5.5
		l-0.6,3.6c-0.1,0.6-0.5,1-1,1.4c-0.3,0.2-1,0.1-1.3-0.2c-0.5-0.5-0.7-0.9-0.6-1.5c0.3-2.1,0.7-4.3,1.2-6.5c0.2-0.8,0.5-1.6,0.7-2.5
		l0.1-0.7l0.1-0.5c0.7-1.9,1-3.7,1.4-5.7c0.3-1.1,0.5-2.3,0.7-3.4c0.1-0.3,0.1-0.7,0.2-1.1l0.2-0.9l0.4-1.7l1.4-5.9
		c0.1-0.6,0.2-1.2,0.3-1.7v-0.1c0.6-1.8,0.7-3.6,1.2-5.4c0.2-1,0.5-1.9,0.8-2.8c0.2-0.6,0.6-1.1,1.1-1.5c0.8-0.8,1.9-0.5,2.4,0.6
		c0.1,0.2,0.2,0.5,0.2,0.7c0,2.1,0.2,4.2,0.6,6.2l0.3,2.3c0.1,0.7,0.1,1.4,0.1,2l0.3,3.1l0.3,3.3l0.2,1.7c0.1,0.5,0.1,0.9,0.1,1.4
		l0.2,3.1c0.1,0.7,0.1,1.5,0.2,2.1c0.1,1.1,0.2,2.1,0.4,3.2c0.2,1.4,0.2,2.8,0.4,4.1c0.1,0.6,0.1,1.1,0.1,1.7l0.3,3
		c0.1,0.8,0.2,1.7,0.3,2.7c0.1,0.2,0,0.3,0,0.5c-0.1,0.2-0.1,0.3-0.1,0.5c0,0.7,0,1.3-0.1,2c0,0.3-0.1,0.7-0.2,1
		c-0.2,0.6-0.7,1-1.3,0.9c-0.5-0.1-1-0.5-1.1-1c-0.1-0.3-0.1-0.6-0.1-0.8c-0.1-0.3,0-0.7,0-0.9L-283.9,304z M-286.4,276
		c-0.1-0.2-0.2-0.4-0.2-0.6c-0.2-0.4-0.5-0.5-0.8-0.1c-0.2,0.3-0.3,0.6-0.4,0.8c-0.5,1.1-0.7,2.2-1,3.4c-0.1,0.3-0.1,0.7-0.1,1
		c-0.1,1,0.5,1.6,1.5,1.6c0.8,0,1.4-0.3,1.5-1.2c0.1-0.2,0.1-0.5,0.1-0.7C-285.9,278.9-286.2,277.4-286.4,276z"/>
	<path class="st1" d="M-275.2,302.1c0.5-2.3,0.8-4.5,1.2-6.7c0.3-1.6,0.6-3.2,0.8-4.9l0.6-3.2c0.2-1.1,0.5-2.3,0.6-3.4
		c0.1-0.3,0.2-0.6,0.2-1c0.2-1.1,0.1-2.1-0.5-3c-0.5-0.7-0.8-1.5-1.3-2.2l-1.6-2.5c-0.4-0.5-0.7-1-1.1-1.5c-0.3-0.5-0.5-1-0.8-1.5
		c-1.2-2-2.1-4.2-3-6.3c-0.3-0.7-0.6-1.5-0.7-2.3c-0.2-0.9,0.8-1.6,1.5-1.4c0.6,0.2,1,0.6,1.3,1.1l1.8,4.2c0.8,1.9,1.9,3.6,2.9,5.3
		c0.3,0.5,0.7,0.9,1,1.4l0.4,0.5c0.7,0.7,1.5,0.3,1.7-0.5c0.3-0.7,0.5-1.5,0.7-2.3c0.7-2.4,1.3-4.7,1.9-7.2l0.4-1.6
		c0.2-1,0.5-1.9,0.8-2.8c0.1-0.2,0.2-0.5,0.4-0.6c0.4-0.5,1-0.6,1.5-0.4s0.8,0.9,0.8,1.5c0,0.3-0.1,0.6-0.2,0.8
		c-0.2,1.1-0.6,2.1-0.9,3.2l-2,7.6c-0.1,0.2-0.1,0.4-0.1,0.6c0,0.1,0,0.3-0.1,0.5c-0.5,1.2-0.7,2.5-1,3.8c-0.3,1.8-0.6,3.6-0.9,5.4
		c-0.2,1.9-0.7,3.8-1.1,5.7c-0.3,1.7-0.6,3.4-0.8,5.1c-0.1,0.8-0.3,1.5-0.5,2.4c-0.4,2.3-0.8,4.6-1.3,6.9c-0.2,0.6-0.3,1.2-0.5,1.7
		c-0.2,0.6-0.6,0.8-1.1,0.8c-0.5,0.1-1.1-0.3-1.2-0.6c-0.1-0.4-0.1-0.8-0.2-1.2L-275.2,302.1z"/>
	<path class="st1" d="M-254.2,292.2c0.1-1.6-0.1-3.3-0.2-5c0-0.3,0-0.7,0-1.1c0-0.4-0.1-0.8-0.1-1.1c-0.1-0.9-0.1-1.9-0.2-2.8
		c-0.1-1.2-0.2-2.4-0.2-3.7c-0.1-0.4-0.1-0.8-0.1-1.3c0-1.1-0.1-2.2-0.2-3.3c-0.1-0.2-0.1-0.3-0.1-0.4c-0.1-1.2-0.1-2.5-0.1-3.7
		c-0.1-1.4-0.1-2.8-0.1-4.1c0-0.7,0.1-1.5,0.2-2.3c0.1-1,1-1.6,1.9-1.6c0.2,0.1,0.3,0.1,0.5,0.2c0.5,0.4,0.8,0.8,0.9,1.4
		c0.1,1.1,0.5,2.3,0.7,3.3c0.6,2.1,1.3,4.2,2,6.2c0.5,1.4,0.8,2.8,1.3,4.2l1.6,4.6c0.2,0.6,0.4,1.2,0.6,1.7c0.7,1.7,1.2,3.3,2,5
		c0.5,0.9,0.8,1.9,1.2,2.8c0.2,0.5,0.5,1,0.7,1.5c0.2,0.2,0.3,0.5,0.6,0.3c0.3-0.1,0.4-0.4,0.4-0.7c0.1-1.2,0-2.5-0.2-3.7l-0.2-2.7
		l-0.1-1.5c-0.1-0.6,0-1.1-0.1-1.6c-0.1-1.6-0.2-3.2-0.2-4.9c-0.1-0.9-0.2-1.8-0.2-2.8c-0.1-0.7-0.2-1.5-0.1-2.2
		c0.1-0.5,0-0.8,0-1.2c-0.3-2.5-0.6-4.9-0.9-7.4c0-0.4-0.2-0.8-0.2-1.3c0-0.6,0.1-1.1,0.2-1.7c0-0.3,0.2-0.5,0.4-0.7
		c0.5-0.5,1.1-0.5,1.6-0.1c0.2,0.2,0.4,0.6,0.5,0.8c0.2,0.8,0.4,1.6,0.4,2.5c0.1,1.1,0.3,2.1,0.4,3.2c0.2,1.6,0.4,3.2,0.4,4.8
		c0,0.1,0,0.2,0.1,0.3c0.2,1.5,0.2,3,0.2,4.5c0.1,1,0.1,2.1,0.2,3.1c0,0.6,0.1,1.2,0.1,1.8c0,0.8,0.1,1.5,0.1,2.3
		c0.1,0.6,0.1,1.1,0.2,1.6l0.4,4.7c0.1,0.6,0.1,1.2,0.1,1.7c0.1,0.7,0.2,1.4,0.2,2.1c0,0.1,0.1,0.2,0.1,0.5c0,0.8-0.1,1.6,0,2.4
		c0.1,1.2,0.1,2.3,0.2,3.5l0.1,2.4c0.1,0.5,0.1,1.1,0.1,1.6c-0.1,0.8-0.8,1.5-1.5,1.4c-0.2,0-0.3,0-0.5-0.1
		c-0.6-0.3-0.9-0.7-1.1-1.2l-2-5.1c-0.5-1.2-1.1-2.3-1.6-3.5c-0.2-0.5-0.5-1-0.7-1.5c-0.1-0.1-0.1-0.2-0.1-0.3
		c-0.6-2-1.4-3.8-2.3-5.8l-1.4-3.3c-0.1-0.3-0.2-0.6-0.3-0.8c0-0.1-0.1-0.2-0.1-0.3c-0.2-1-0.6-1.9-1-2.8c-0.4-1-0.8-2-1.3-3
		c-0.1-0.1-0.2-0.3-0.3-0.4c-0.2-0.2-0.4-0.1-0.5,0.1l-0.1,0.5c-0.2,0.9-0.2,1.9-0.2,2.8c0.1,0.7,0.1,1.3,0.2,1.9
		c0.1,1.4,0.2,2.8,0.2,4.2c0,0.3,0,0.7,0,1c0,1.9,0.2,3.7,0.3,5.5c0.1,0.5,0,0.9,0,1.4l0.2,3c0.1,1,0.2,1.9,0.2,2.8
		c0,0.6,0.1,1.1,0.1,1.6c0,0.6-0.1,1.1-0.4,1.6c-0.1,0.2-0.2,0.3-0.4,0.5c-0.4,0.3-1,0.3-1.4-0.1c-0.3-0.4-0.6-0.8-0.6-1.4l-0.1-1.5
		c-0.1-1-0.1-2-0.2-2.9c0-0.3-0.1-0.6-0.1-0.8c0-1.2-0.1-2.4-0.2-3.6c-0.1-0.1-0.1-0.3-0.1-0.4V292.2z"/>
	<path class="st1" d="M-234.1,274.7c0.5-1.8,1-3.7,1.7-5.4c0.7-1.8,1.6-3.4,2.8-5c0.5-0.5,0.8-1.2,1.5-1.6c0.5-0.3,0.8-0.6,1.4-0.8
		c1.2-0.6,2.4-0.5,3.6,0c0.6,0.3,1.1,0.6,1.7,1c0.5,0.3,0.8,1,1.1,1.5c0.3,0.7,0.6,1.4,0.7,2.1c0.5,1.6,0.8,3.2,1.2,4.9
		c0.2,1,0.4,2,0.4,3.2c0.2,1.4,0.2,2.9,0.2,4.3c0,1.2,0.1,2.4,0.1,3.7c0.1,1,0.1,2.1-0.1,3.1c0,0.2,0,0.4,0,0.6v5.1
		c-0.1,2.6-0.3,5.2-1,7.7c-0.5,1.9-1.2,3.6-2.2,5.2l-0.1,0.2c-0.3,0.7-0.8,1.1-1.4,1.6c-0.8,0.7-1.7,0.8-2.8,0.7
		c-1.2-0.1-2.3-0.6-3.4-1.1c-1.1-0.5-1.9-1.4-2.7-2.3c-0.9-1.1-1.5-2.5-1.9-3.8c-0.4-1.4-0.7-2.8-1.1-4.2c-0.4-1.7-0.5-3.4-0.7-5.2
		c-0.2-0.7-0.1-1.4-0.2-2c0-0.8-0.1-1.6-0.1-2.1C-235.3,282-234.9,278.3-234.1,274.7z M-220.6,281.5l-0.1-2.8
		c-0.1-0.8-0.2-1.7-0.2-2.5c0.1-1.2-0.2-2.4-0.3-3.6c-0.3-1.8-0.8-3.6-1.2-5.4c-0.2-0.7-0.6-1.4-1.2-2c-0.8-0.6-1.9-0.7-2.6-0.1
		c-0.5,0.3-0.7,0.7-1.1,1.1c-1,1.2-1.7,2.7-2.3,4.1c-0.7,1.4-1,2.9-1.4,4.3c-0.2,0.7-0.4,1.4-0.5,2.1c-0.3,1.7-0.6,3.4-0.7,5.1
		c-0.1,1.1-0.2,2.1-0.3,3.2c0,1.1,0,2,0.1,3c0.1,1.5,0.3,3,0.5,4.5c0.1,0.7,0.3,1.4,0.4,2.1l0.3,1.9c0.3,1.2,0.6,2.4,1.1,3.6
		c0.5,1,1,1.9,1.9,2.6c0.7,0.6,1.5,1,2.3,1.1c0.9,0.2,1.7,0.1,2.3-0.7c0.3-0.4,0.6-0.8,0.8-1.2c0.9-1.9,1.5-3.9,1.7-6.1l0.3-2.1
		c0-0.5,0.1-0.9,0.1-1.4c0.1-1.1,0.2-2.1,0.2-3.2c0-2-0.1-4.1,0-6.1V281.5z"/>
	<path class="st1" d="M-203.1,295.3c-0.2-1.3-0.2-2.5-0.2-3.8c-0.1-2-0.1-3.9-0.1-5.9c0-0.5-0.1-1-0.1-1.4c0-0.1-0.1-0.2-0.1-0.3
		c0.1-1.7,0.1-3.4,0.1-5.2c0.1-1.2,0.1-2.5,0.1-3.7c-0.1-1,0.1-2,0.1-3c0-1.6,0.1-3.2,0.1-4.7c0-0.2,0-0.4-0.1-0.6
		c-0.1-0.9-0.6-1.3-1.5-1.4c-1,0-1.9,0.1-2.8,0c-0.4,0-0.8-0.1-1.2-0.2c-0.7-0.2-1.1-0.7-1.1-1.5c0-0.3,0.2-0.5,0.4-0.7
		c0.5-0.3,1.1-0.5,1.6-0.5l3.9-0.1c0.8,0,1.7-0.1,2.5-0.1h0.8c1.1,0.1,2.4,0.1,3.6,0.2c0.3,0,0.8,0.1,1.1,0.2c1,0.3,1.1,1.1,0.5,1.9
		c-0.2,0.3-0.5,0.5-0.9,0.6l-1.6,0.2c-0.2,0.1-0.5,0-0.7,0.1c-0.8,0-1.4,0.7-1.5,1.3c-0.1,0.6-0.1,1.1-0.1,1.6l-0.2,4.4
		c0,0.3,0.1,0.7,0.1,1v0.4l-0.1,1.9c-0.1,1.1-0.2,2.2-0.2,3.2c0,0.3-0.1,0.5-0.1,0.8v3.2c0,0.2,0.1,0.5,0.1,0.7v0.5
		c-0.2,1.2,0,2.4,0,3.6c0.1,0.8,0.2,1.5,0.2,2.3c0.1,1.1,0,2.3,0.1,3.3c0,1.2,0.1,2.5,0.1,3.6v7.6c0,0.5-0.1,1-0.5,1.4
		c-0.6,1-1.7,1-2.3,0c-0.2-0.4-0.3-0.7-0.3-1.1c0.1-0.8,0.1-1.7,0.1-2.5c0.1-0.8,0-1.6,0-2.4V295.3z"/>
	<path class="st1" d="M-195.3,274.7c0.5-1.8,1-3.7,1.7-5.4c0.7-1.8,1.6-3.4,2.8-5c0.5-0.5,0.8-1.2,1.5-1.6c0.5-0.3,0.8-0.6,1.4-0.8
		c1.2-0.6,2.4-0.5,3.6,0c0.6,0.3,1.1,0.6,1.7,1c0.5,0.3,0.8,1,1.1,1.5c0.3,0.7,0.6,1.4,0.7,2.1c0.5,1.6,0.8,3.2,1.2,4.9
		c0.2,1,0.4,2,0.4,3.2c0.2,1.4,0.2,2.9,0.2,4.3c0,1.2,0.1,2.4,0.1,3.7c0.1,1,0.1,2.1-0.1,3.1c0,0.2,0,0.4,0,0.6v5.1
		c-0.1,2.6-0.3,5.2-1,7.7c-0.5,1.9-1.2,3.6-2.2,5.2l-0.1,0.2c-0.3,0.7-0.8,1.1-1.4,1.6c-0.8,0.7-1.7,0.8-2.8,0.7
		c-1.2-0.1-2.3-0.6-3.4-1.1c-1.1-0.5-1.9-1.4-2.7-2.3c-0.9-1.1-1.5-2.5-1.9-3.8c-0.4-1.4-0.7-2.8-1.1-4.2c-0.4-1.7-0.5-3.4-0.7-5.2
		c-0.2-0.7-0.1-1.4-0.2-2c0-0.8-0.1-1.6-0.1-2.1C-196.6,282-196.1,278.3-195.3,274.7z M-181.9,281.5l-0.1-2.8
		c-0.1-0.8-0.2-1.7-0.2-2.5c0.1-1.2-0.2-2.4-0.3-3.6c-0.3-1.8-0.8-3.6-1.2-5.4c-0.2-0.7-0.6-1.4-1.2-2c-0.8-0.6-1.9-0.7-2.6-0.1
		c-0.5,0.3-0.7,0.7-1.1,1.1c-1,1.2-1.7,2.7-2.3,4.1c-0.7,1.4-1,2.9-1.4,4.3c-0.2,0.7-0.4,1.4-0.5,2.1c-0.3,1.7-0.6,3.4-0.7,5.1
		c-0.1,1.1-0.2,2.1-0.3,3.2c0,1.1,0,2,0.1,3c0.1,1.5,0.3,3,0.5,4.5c0.1,0.7,0.3,1.4,0.4,2.1l0.3,1.9c0.3,1.2,0.6,2.4,1.1,3.6
		c0.5,1,1,1.9,1.9,2.6c0.7,0.6,1.5,1,2.3,1.1c0.9,0.2,1.7,0.1,2.3-0.7c0.3-0.4,0.6-0.8,0.8-1.2c0.9-1.9,1.5-3.9,1.7-6.1l0.3-2.1
		c0-0.5,0.1-0.9,0.1-1.4c0.1-1.1,0.2-2.1,0.2-3.2c0-2-0.1-4.1,0-6.1V281.5z"/>
	<path class="st1" d="M-155.6,259.9c1,0.2,1.8,0.6,2.5,1.3c0.5,0.6,1.1,1.2,1.6,1.8c0.3,0.5,0.5,1,0.7,1.5c0.7,1.5,1,3.1,1.1,4.8
		c0.1,1.2,0,2.3-0.2,3.6c-0.3,1.9-1.2,3.4-2.5,4.8c-1.5,1.6-3.1,2.8-5,3.8c-0.6,0.3-1.1,0.5-1.6,0.8c-0.3,0.2-0.6,0.4-0.8,0.6
		c-0.2,0.2-0.3,0.5-0.4,0.7c-0.3,1.1-0.3,2.2-0.2,3.3c0.1,1.3,0.2,2.6,0.2,3.8s-0.1,2.4,0.2,3.7c0.1,0.3,0,0.6,0,1l0.1,4.4l0.2,2
		c0.1,0.8,0.1,1.7,0.3,2.6c0.1,0.8,0.1,1.7-0.1,2.5c0,0.2-0.1,0.3-0.1,0.5c-0.2,0.5-0.6,0.8-1.1,0.8c-0.5-0.1-0.9-0.3-1.1-0.8
		c-0.2-0.4-0.3-0.8-0.3-1.2c-0.2-1.4-0.3-2.7-0.5-4.1c-0.1-0.3-0.1-0.6-0.1-0.9l-0.2-3.6c-0.1-0.5-0.1-0.9-0.1-1.4
		c0-0.6-0.1-1.1-0.1-1.7v-0.2c0.2-1.6,0-3.3-0.1-5c-0.1-0.2-0.1-0.3-0.1-0.5v-3.3c0-0.3-0.1-0.6-0.1-1c0-0.2,0-0.3,0-0.6
		c0-1,0.1-2,0.1-3V278l0.2-2.8v-0.3c0.1-2.5,0.1-5,0.1-7.5c0-1,0.1-2,0.2-2.9v-0.5c0.1-1.1,0.5-2.1,1.3-2.9c0.5-0.4,1-0.7,1.6-0.8
		c0.9-0.3,1.9-0.4,2.8-0.3C-156.6,259.8-156.1,259.8-155.6,259.9z M-160.3,277.1c0,0.4,0.1,0.8,0.3,1.2c0.2,0.3,0.6,0.5,1,0.5
		c0.4-0.1,0.8-0.2,1.1-0.5c1.2-0.7,2.1-1.6,3.1-2.5c0.9-0.8,1.2-1.9,1.7-2.9c0.1-0.1,0.1-0.2,0.1-0.2c0.5-2.3,0.3-4.5-0.4-6.6
		c-0.2-0.7-0.6-1.3-1-1.9c-0.5-0.6-1.1-1.1-1.9-1.4c-1-0.4-1.9-0.2-2.7,0.3c-0.6,0.3-1,0.8-1,1.5c0,0.3-0.1,0.6-0.1,0.8l-0.2,1.7
		c0,0.7-0.1,1.4-0.1,2v3.6c0,0.3,0.1,0.6,0.1,1c0,0.6-0.1,1.2-0.1,1.9V277.1z"/>
	<path class="st1" d="M-147.6,274.7c0.5-1.8,1-3.7,1.7-5.4c0.7-1.8,1.6-3.4,2.8-5c0.5-0.5,0.8-1.2,1.5-1.6c0.5-0.3,0.8-0.6,1.4-0.8
		c1.2-0.6,2.4-0.5,3.6,0c0.6,0.3,1.1,0.6,1.7,1c0.5,0.3,0.8,1,1.1,1.5c0.3,0.7,0.6,1.4,0.7,2.1c0.5,1.6,0.8,3.2,1.2,4.9
		c0.2,1,0.4,2,0.4,3.2c0.2,1.4,0.2,2.9,0.2,4.3c0,1.2,0.1,2.4,0.1,3.7c0.1,1,0.1,2.1-0.1,3.1c0,0.2,0,0.4,0,0.6v5.1
		c-0.1,2.6-0.3,5.2-1,7.7c-0.5,1.9-1.2,3.6-2.2,5.2l-0.1,0.2c-0.3,0.7-0.8,1.1-1.4,1.6c-0.8,0.7-1.7,0.8-2.8,0.7
		c-1.2-0.1-2.3-0.6-3.4-1.1c-1.1-0.5-1.9-1.4-2.7-2.3c-0.9-1.1-1.5-2.5-1.9-3.8c-0.4-1.4-0.7-2.8-1.1-4.2c-0.4-1.7-0.5-3.4-0.7-5.2
		c-0.2-0.7-0.1-1.4-0.2-2c0-0.8-0.1-1.6-0.1-2.1C-148.8,282-148.4,278.3-147.6,274.7z M-134.1,281.5l-0.1-2.8
		c-0.1-0.8-0.2-1.7-0.2-2.5c0.1-1.2-0.2-2.4-0.3-3.6c-0.3-1.8-0.8-3.6-1.2-5.4c-0.2-0.7-0.6-1.4-1.2-2c-0.8-0.6-1.9-0.7-2.6-0.1
		c-0.5,0.3-0.7,0.7-1.1,1.1c-1,1.2-1.7,2.7-2.3,4.1c-0.7,1.4-1,2.9-1.4,4.3c-0.2,0.7-0.4,1.4-0.5,2.1c-0.3,1.7-0.6,3.4-0.7,5.1
		c-0.1,1.1-0.2,2.1-0.3,3.2c0,1.1,0,2,0.1,3c0.1,1.5,0.3,3,0.5,4.5c0.1,0.7,0.3,1.4,0.4,2.1l0.3,1.9c0.3,1.2,0.6,2.4,1.1,3.6
		c0.5,1,1,1.9,1.9,2.6c0.7,0.6,1.5,1,2.3,1.1c0.9,0.2,1.7,0.1,2.3-0.7c0.3-0.4,0.6-0.8,0.8-1.2c0.9-1.9,1.5-3.9,1.7-6.1l0.3-2.1
		c0-0.5,0.1-0.9,0.1-1.4c0.1-1.1,0.2-2.1,0.2-3.2c0-2-0.1-4.1,0-6.1V281.5z"/>
	<path class="st1" d="M-120.3,302.5c0.3,0,0.6,0.1,0.9,0.1c0.5,0.1,0.8,0.5,1.1,0.8c0.1,0.1,0.1,0.3,0.1,0.5c-0.2,0.4-0.5,0.8-0.9,1
		c-0.3,0.1-0.6,0.2-0.9,0.2c-1.5,0.2-3,0.3-4.5,0.3l-2-0.2c-0.8-0.1-1.5-0.6-1.9-1.2c-0.2-0.2-0.2-0.5-0.2-0.7
		c-0.2-1.7-0.2-3.4-0.3-5.1c-0.1-0.7-0.1-1.5-0.1-2.3l-0.2-2.7c0-0.3,0.1-0.6,0.1-0.9v-2.1c0.1-1.5,0.1-3.1,0.1-4.7
		c0.1-0.6,0.1-1.1,0.1-1.6c-0.1-1.7,0.1-3.4,0-5.1v-5c0.1-1.6,0-3.1,0.2-4.6c0.1-1.7,0.1-3.3,0.2-5c0-0.8,0.1-1.5,0.1-2.3
		c0-0.6,0.3-1.1,0.6-1.6c0.4-0.5,0.8-0.6,1.4-0.5c0.6,0.1,0.8,0.6,1,1c0.1,0.5,0.2,0.9,0.1,1.4c-0.1,0.5-0.1,1.1-0.1,1.6
		c-0.1,1.6-0.2,3.2-0.2,4.9c0.1,1.1-0.1,2.2-0.1,3.3c0,0.2-0.1,0.4-0.1,0.6c-0.1,0.2-0.1,0.5-0.1,0.7l-0.1,3.7v4.1
		c0,0.5,0.1,1,0.1,1.5v0.7c-0.1,1.4-0.1,2.8-0.1,4.2c0.1,0.1,0.1,0.3,0.1,0.5v6.4c0,0.8-0.1,1.6,0,2.5c0,0.7,0.1,1.4,0.1,2l0.2,1.7
		c0.1,0.5,0.1,0.9,0.5,1.3c0.2,0.3,0.6,0.5,1,0.5L-120.3,302.5z"/>
	<path class="st1" d="M-108.2,302.5c0.3,0,0.6,0.1,0.9,0.1c0.5,0.1,0.8,0.5,1.1,0.8c0.1,0.1,0.1,0.3,0.1,0.5c-0.2,0.4-0.5,0.8-0.9,1
		c-0.3,0.1-0.6,0.2-0.9,0.2c-1.5,0.2-3,0.3-4.5,0.3l-2-0.2c-0.8-0.1-1.5-0.6-1.9-1.2c-0.2-0.2-0.2-0.5-0.2-0.7
		c-0.2-1.7-0.2-3.4-0.3-5.1c-0.1-0.7-0.1-1.5-0.1-2.3l-0.2-2.7c0-0.3,0.1-0.6,0.1-0.9v-2.1c0.1-1.5,0.1-3.1,0.1-4.7
		c0.1-0.6,0.1-1.1,0.1-1.6c-0.1-1.7,0.1-3.4,0-5.1v-5c0.1-1.6,0-3.1,0.2-4.6c0.1-1.7,0.1-3.3,0.2-5c0-0.8,0.1-1.5,0.1-2.3
		c0-0.6,0.3-1.1,0.6-1.6c0.4-0.5,0.8-0.6,1.4-0.5c0.6,0.1,0.8,0.6,1,1c0.1,0.5,0.2,0.9,0.1,1.4c-0.1,0.5-0.1,1.1-0.1,1.6
		c-0.1,1.6-0.2,3.2-0.2,4.9c0.1,1.1-0.1,2.2-0.1,3.3c0,0.2-0.1,0.4-0.1,0.6c-0.1,0.2-0.1,0.5-0.1,0.7l-0.1,3.7v4.1
		c0,0.5,0.1,1,0.1,1.5v0.7c-0.1,1.4-0.1,2.8-0.1,4.2c0.1,0.1,0.1,0.3,0.1,0.5v6.4c0,0.8-0.1,1.6,0,2.5c0,0.7,0.1,1.4,0.1,2l0.2,1.7
		c0.1,0.5,0.1,0.9,0.5,1.3c0.2,0.3,0.6,0.5,1,0.5L-108.2,302.5z"/>
	<path class="st1" d="M-106.7,288.7c0-1.2,0-2.4,0-3.7c0-0.3-0.1-0.6-0.1-0.8v-0.5c0.1-0.2,0.1-0.5,0.1-0.7l0.2-3
		c0.1-0.9,0.2-1.7,0.2-2.5c0-0.8,0.1-1.7,0.1-2.7c0-0.2-0.1-0.5-0.1-0.8v-0.3c0-0.9,0.1-1.8,0.1-2.7c0.1-1.2,0-2.5,0.1-3.7
		c0-1.3,0.2-2.6,0.6-3.8c0.2-0.6,0.8-0.8,1.3-1c0.6-0.1,1,0.2,1.4,0.6c0.1,0.1,0.1,0.3,0.1,0.5c-0.1,0.5-0.1,0.9-0.2,1.4
		c-0.2,1.2-0.3,2.5-0.4,3.7l-0.1,3.9c0,0.3,0.1,0.6,0.1,0.8v0.7c0,1.1-0.1,2-0.1,3.1c0.1,1.2-0.1,2.4-0.2,3.6
		c-0.1,0.9,0,1.9-0.1,2.9l-0.1,4c-0.1,1.7-0.2,3.4,0.1,5.1c0.1,0.7,0.2,1.2,0.2,1.9c0.1,0.1,0.1,0.2,0.1,0.4c0.1,2,0.8,3.9,2.4,5.4
		c0.7,0.7,1.6,1.1,2.7,1c0.4,0,0.8-0.1,1.1-0.2c1.1-0.6,1.9-1.4,2.4-2.5c0.5-1.2,0.9-2.5,1.1-3.8c0.1-0.7,0.4-1.4,0.6-2.1
		c0.2-1.6,0.5-3.2,0.7-4.7c0.2-1.3,0.2-2.5,0.3-3.8c0.1-0.6,0.2-1.2,0.2-1.8l0.3-3.9l0.2-2.6c0-0.6,0-1.1,0-1.7c0-0.1-0.1-0.3,0-0.4
		c0.1-1.7,0.1-3.4-0.1-5.1c-0.1-0.8-0.1-1.5-0.1-2.3c0-1-0.1-1.9-0.2-2.9c-0.1-0.6,0-1.1,0.2-1.7c0.5-0.7,1.2-0.8,1.8-0.3
		c0.2,0.2,0.5,0.5,0.6,0.8c0.2,0.5,0.3,1.1,0.3,1.6c0,0.6,0.1,1.1,0.1,1.6c0.1,1.1,0.2,2.3,0.2,3.4c0.1,0.8,0.2,1.7,0.2,2.7
		c0,0.4-0.1,0.8-0.1,1.3c0.1,1.6-0.1,3.3-0.1,5c0,0.8-0.1,1.6-0.2,2.4c-0.1,1.2-0.2,2.5-0.3,3.8l-0.2,1.7c-0.1,1.1-0.2,2.1-0.4,3.2
		c-0.2,1.5-0.5,2.9-0.7,4.3l-0.2,1.3c-0.1,0.3-0.2,0.7-0.3,1c-0.3,1.4-0.7,2.8-1.2,4.1c-0.6,1.4-1.4,2.5-2.7,3.3
		c-0.6,0.5-1.3,0.8-2,1.1c-1.1,0.4-2.1,0.4-3.2,0.1c-2-0.6-3.4-1.7-4.5-3.4c-1-1.6-1.5-3.3-1.8-5.1c-0.2-1.4-0.2-2.8-0.2-4.3V288.7z
		"/>
	<path class="st1" d="M-81.1,295.3c-0.2-1.3-0.2-2.5-0.2-3.8c-0.1-2-0.1-3.9-0.1-5.9c0-0.5-0.1-1-0.1-1.4c0-0.1-0.1-0.2-0.1-0.3
		c0.1-1.7,0.1-3.4,0.1-5.2c0.1-1.2,0.1-2.5,0.1-3.7c-0.1-1,0.1-2,0.1-3c0-1.6,0.1-3.2,0.1-4.7c0-0.2,0-0.4-0.1-0.6
		c-0.1-0.9-0.6-1.3-1.5-1.4c-1,0-1.9,0.1-2.8,0c-0.4,0-0.8-0.1-1.2-0.2c-0.7-0.2-1.1-0.7-1.1-1.5c0-0.3,0.2-0.5,0.4-0.7
		c0.5-0.3,1.1-0.5,1.6-0.5l3.9-0.1c0.8,0,1.7-0.1,2.5-0.1h0.8c1.1,0.1,2.4,0.1,3.6,0.2c0.3,0,0.8,0.1,1.1,0.2c1,0.3,1.1,1.1,0.5,1.9
		c-0.2,0.3-0.5,0.5-0.9,0.6l-1.6,0.2c-0.2,0.1-0.5,0-0.7,0.1c-0.8,0-1.4,0.7-1.5,1.3c-0.1,0.6-0.1,1.1-0.1,1.6l-0.2,4.4
		c0,0.3,0.1,0.7,0.1,1v0.4l-0.1,1.9c-0.1,1.1-0.2,2.2-0.2,3.2c0,0.3-0.1,0.5-0.1,0.8v3.2c0,0.2,0.1,0.5,0.1,0.7v0.5
		c-0.2,1.2,0,2.4,0,3.6c0.1,0.8,0.2,1.5,0.2,2.3c0.1,1.1,0,2.3,0.1,3.3c0,1.2,0.1,2.5,0.1,3.6v7.6c0,0.5-0.1,1-0.5,1.4
		c-0.6,1-1.7,1-2.3,0c-0.2-0.4-0.3-0.7-0.3-1.1c0.1-0.8,0.1-1.7,0.1-2.5c0.1-0.8,0-1.6,0-2.4V295.3z"/>
	<path class="st1" d="M-71.4,299.2c0.1-0.5,0.1-1.1,0.1-1.6c-0.1-1.1,0-2.2-0.2-3.3c0-0.2,0-0.4,0-0.6c-0.1-3.3-0.1-6.6-0.1-9.9
		c-0.1-1.4,0-2.8,0-4.2c0-1.2,0.1-2.4,0.1-3.6c0-1.1,0.1-2.2,0.1-3.3c0.1-0.7,0-1.5,0.1-2.3c0.1-1.9,0-3.9,0.5-5.8
		c0.1-0.6,0.3-1.1,0.7-1.5c0.5-0.5,1.1-0.5,1.6-0.1c0.5,0.5,0.6,1,0.5,1.6l-0.3,2.2c-0.2,1.9-0.3,3.9-0.2,5.9c0,0.7-0.1,1.5-0.1,2.2
		v17.2c0,1.5,0,3,0.1,4.5c0.1,1.4,0.2,2.8,0.2,4.2c0,0.6-0.2,1.1-0.2,1.6c-0.1,0.5-0.5,0.8-0.8,1c-0.4,0.2-0.8,0.2-1.1-0.2
		c-0.5-0.3-0.7-0.9-0.7-1.5L-71.4,299.2z"/>
	<path class="st1" d="M-65.3,274.7c0.5-1.8,1-3.7,1.7-5.4c0.7-1.8,1.6-3.4,2.8-5c0.5-0.5,0.8-1.2,1.5-1.6c0.5-0.3,0.8-0.6,1.4-0.8
		c1.2-0.6,2.4-0.5,3.6,0c0.6,0.3,1.1,0.6,1.7,1c0.5,0.3,0.8,1,1.1,1.5c0.3,0.7,0.6,1.4,0.7,2.1c0.5,1.6,0.8,3.2,1.2,4.9
		c0.2,1,0.4,2,0.4,3.2c0.2,1.4,0.2,2.9,0.2,4.3c0,1.2,0.1,2.4,0.1,3.7c0.1,1,0.1,2.1-0.1,3.1c0,0.2,0,0.4,0,0.6v5.1
		c-0.1,2.6-0.3,5.2-1,7.7c-0.5,1.9-1.2,3.6-2.2,5.2l-0.1,0.2c-0.3,0.7-0.8,1.1-1.4,1.6c-0.8,0.7-1.7,0.8-2.8,0.7
		c-1.2-0.1-2.3-0.6-3.4-1.1c-1.1-0.5-1.9-1.4-2.7-2.3c-0.9-1.1-1.5-2.5-1.9-3.8c-0.4-1.4-0.7-2.8-1.1-4.2c-0.4-1.7-0.5-3.4-0.7-5.2
		c-0.2-0.7-0.1-1.4-0.2-2c0-0.8-0.1-1.6-0.1-2.1C-66.5,282-66.1,278.3-65.3,274.7z M-51.8,281.5l-0.1-2.8c-0.1-0.8-0.2-1.7-0.2-2.5
		c0.1-1.2-0.2-2.4-0.3-3.6c-0.3-1.8-0.8-3.6-1.2-5.4c-0.2-0.7-0.6-1.4-1.2-2c-0.8-0.6-1.9-0.7-2.6-0.1c-0.5,0.3-0.7,0.7-1.1,1.1
		c-1,1.2-1.7,2.7-2.3,4.1c-0.7,1.4-1,2.9-1.4,4.3c-0.2,0.7-0.4,1.4-0.5,2.1c-0.3,1.7-0.6,3.4-0.7,5.1c-0.1,1.1-0.2,2.1-0.3,3.2
		c0,1.1,0,2,0.1,3c0.1,1.5,0.3,3,0.5,4.5c0.1,0.7,0.3,1.4,0.4,2.1l0.3,1.9c0.3,1.2,0.6,2.4,1.1,3.6c0.5,1,1,1.9,1.9,2.6
		c0.7,0.6,1.5,1,2.3,1.1c0.9,0.2,1.7,0.1,2.3-0.7c0.3-0.4,0.6-0.8,0.8-1.2c0.9-1.9,1.5-3.9,1.7-6.1l0.3-2.1c0-0.5,0.1-0.9,0.1-1.4
		c0.1-1.1,0.2-2.1,0.2-3.2c0-2-0.1-4.1,0-6.1V281.5z"/>
	<path class="st1" d="M-45.9,292.2c0.1-1.6-0.1-3.3-0.2-5c0-0.3,0-0.7,0-1.1c0-0.4-0.1-0.8-0.1-1.1c-0.1-0.9-0.1-1.9-0.2-2.8
		c-0.1-1.2-0.2-2.4-0.2-3.7c-0.1-0.4-0.1-0.8-0.1-1.3c0-1.1-0.1-2.2-0.2-3.3c-0.1-0.2-0.1-0.3-0.1-0.4c-0.1-1.2-0.1-2.5-0.1-3.7
		c-0.1-1.4-0.1-2.8-0.1-4.1c0-0.7,0.1-1.5,0.2-2.3c0.1-1,1-1.6,1.9-1.6c0.2,0.1,0.3,0.1,0.5,0.2c0.5,0.4,0.8,0.8,0.9,1.4
		c0.1,1.1,0.5,2.3,0.7,3.3c0.6,2.1,1.3,4.2,2,6.2c0.5,1.4,0.8,2.8,1.3,4.2l1.6,4.6c0.2,0.6,0.4,1.2,0.6,1.7c0.7,1.7,1.2,3.3,2,5
		c0.5,0.9,0.8,1.9,1.2,2.8c0.2,0.5,0.5,1,0.7,1.5c0.2,0.2,0.3,0.5,0.6,0.3c0.3-0.1,0.4-0.4,0.4-0.7c0.1-1.2,0-2.5-0.2-3.7l-0.2-2.7
		l-0.1-1.5c-0.1-0.6,0-1.1-0.1-1.6c-0.1-1.6-0.2-3.2-0.2-4.9c-0.1-0.9-0.2-1.8-0.2-2.8c-0.1-0.7-0.2-1.5-0.1-2.2
		c0.1-0.5,0-0.8,0-1.2c-0.3-2.5-0.6-4.9-0.9-7.4c0-0.4-0.2-0.8-0.2-1.3c0-0.6,0.1-1.1,0.2-1.7c0-0.3,0.2-0.5,0.4-0.7
		c0.5-0.5,1.1-0.5,1.6-0.1c0.2,0.2,0.4,0.6,0.5,0.8c0.2,0.8,0.4,1.6,0.4,2.5c0.1,1.1,0.3,2.1,0.4,3.2c0.2,1.6,0.4,3.2,0.4,4.8
		c0,0.1,0,0.2,0.1,0.3c0.2,1.5,0.2,3,0.2,4.5c0.1,1,0.1,2.1,0.2,3.1c0,0.6,0.1,1.2,0.1,1.8c0,0.8,0.1,1.5,0.1,2.3
		c0.1,0.6,0.1,1.1,0.2,1.6l0.4,4.7c0.1,0.6,0.1,1.2,0.1,1.7c0.1,0.7,0.2,1.4,0.2,2.1c0,0.1,0.1,0.2,0.1,0.5c0,0.8-0.1,1.6,0,2.4
		c0.1,1.2,0.1,2.3,0.2,3.5l0.1,2.4c0.1,0.5,0.1,1.1,0.1,1.6c-0.1,0.8-0.8,1.5-1.5,1.4c-0.2,0-0.3,0-0.5-0.1
		c-0.6-0.3-0.9-0.7-1.1-1.2l-2-5.1c-0.5-1.2-1.1-2.3-1.6-3.5c-0.2-0.5-0.5-1-0.7-1.5c-0.1-0.1-0.1-0.2-0.1-0.3
		c-0.6-2-1.4-3.8-2.3-5.8l-1.4-3.3c-0.1-0.3-0.2-0.6-0.3-0.8c0-0.1-0.1-0.2-0.1-0.3c-0.2-1-0.6-1.9-1-2.8c-0.4-1-0.8-2-1.3-3
		c-0.1-0.1-0.2-0.3-0.3-0.4c-0.2-0.2-0.4-0.1-0.5,0.1l-0.1,0.5c-0.2,0.9-0.2,1.9-0.2,2.8c0.1,0.7,0.1,1.3,0.2,1.9
		c0.1,1.4,0.2,2.8,0.2,4.2c0,0.3,0,0.7,0,1c0,1.9,0.2,3.7,0.3,5.5c0.1,0.5,0,0.9,0,1.4l0.2,3c0.1,1,0.2,1.9,0.2,2.8
		c0,0.6,0.1,1.1,0.1,1.6c0,0.6-0.1,1.1-0.4,1.6c-0.1,0.2-0.2,0.3-0.4,0.5c-0.4,0.3-1,0.3-1.4-0.1c-0.3-0.4-0.6-0.8-0.6-1.4l-0.1-1.5
		c-0.1-1-0.1-2-0.2-2.9c0-0.3-0.1-0.6-0.1-0.8c0-1.2-0.1-2.4-0.2-3.6c-0.1-0.1-0.1-0.3-0.1-0.4V292.2z"/>
</g>
</svg>
