<?xml version="1.0" encoding="utf-8"?>
<!-- Generator: Adobe Illustrator 19.0.0, SVG Export Plug-In . SVG Version: 6.00 Build 0)  -->
<svg version="1.1" id="Layer_1" xmlns="http://www.w3.org/2000/svg" xmlns:xlink="http://www.w3.org/1999/xlink" x="0px" y="0px"
	 viewBox="0 0 392 494" style="enable-background:new 0 0 392 494;" xml:space="preserve">
<style type="text/css">
	.st0{opacity:0.3;}
	.st1{fill:#EF487D;}
	.st2{fill:#FF668C;}
	.st3{fill:#343A6E;}
	.st4{fill:#F0F0F0;}
	.st5{fill:#F2AE5A;}
	.st6{fill:#F9DF73;}
	.st7{fill:#5897D1;}
	.st8{fill:#484B7F;}
</style>
<g id="XMLID_532_" class="st0">
	<path id="XMLID_689_" class="st1" d="M392,85.2v317.6c-21.2,20.1-46.8,36.2-76,46.8c-29.5,10.6-59.8,14.5-89.2,12.5
		c-1.6-0.1-3.2-0.2-4.8-0.4c-1.6-0.1-3.2-0.3-4.7-0.5c-0.8-0.1-1.6-0.2-2.4-0.3c-8.6-1.1-17.2-2.7-25.6-4.8
		c-8.3-2.1-16.5-4.6-24.6-7.6c-15.5-5.8-30.4-13.5-44.2-22.7c-37.6-25-67.9-61.9-84.4-107.7c-16.5-45.8-16.8-93.5-3.8-136.8
		c8.2-27.3,21.6-52.8,39.6-75c23.5-29,54.7-52.4,92-66.6c1.2-0.5,2.4-0.9,3.6-1.3c0.2-0.1,0.5-0.2,0.7-0.3c0.6-0.2,1.3-0.5,2-0.7
		c38.1-13.2,77.4-15.3,114.3-7.8c28,5.6,54.7,16.7,78.4,32.5c0,0,0,0,0,0C373.2,68.9,383,76.6,392,85.2z"/>
	<path id="XMLID_657_" class="st2" d="M392,116.9v197.2c-21.6,35.1-54.7,63.5-96.5,78.6c-15.4,5.5-31,9-46.5,10.4
		c-6.2,0.6-12.5,0.9-18.7,0.8c-2.5,0-5-0.1-7.4-0.2c-1.4-0.1-2.8-0.1-4.2-0.2c-10.9-0.8-21.7-2.5-32.3-5.1c-0.3-0.1-0.5-0.1-0.8-0.2
		c-6.9-1.7-13.7-3.9-20.4-6.4c-8.6-3.2-17-7.1-25-11.6c-4.5-2.5-8.8-5.1-13.1-8c-13.9-9.3-26.7-20.4-37.8-33.3
		c-14.8-17-26.8-37-34.9-59.5c-8.1-22.5-11.7-45.6-11.2-68.1c0.4-17,3.1-33.7,7.9-49.8c6.3-20.9,16.1-40.7,29.1-58.2
		c1.6-2.2,3.3-4.3,5-6.4C105.3,72,132,52,164,39.7c1.2-0.5,2.4-0.9,3.6-1.3c0.2-0.1,0.5-0.2,0.7-0.3c0.6-0.2,1.3-0.5,2-0.7
		c32.7-11.3,66.4-13,98.2-6.6c2.7,0.5,5.3,1.1,7.9,1.8c21.2,5.2,41.4,14.1,59.6,26.2c13.9,9.3,26.7,20.4,37.8,33.3
		C380.5,99.7,386.6,108,392,116.9z"/>
	<path id="XMLID_654_" class="st3" d="M392,142.5v260.3c-21.2,20.1-46.8,36.2-76,46.8c-29.5,10.6-59.8,14.5-89.2,12.5
		c-1.6-0.1-3.2-0.2-4.8-0.4c-1.6-0.1-3.2-0.3-4.7-0.5c-0.8-0.1-1.6-0.2-2.4-0.3c-8.6-1.1-17.2-2.7-25.6-4.8
		c-8.3-2.1-16.5-4.6-24.6-7.6c-15.5-5.8-30.4-13.5-44.2-22.7L89.3,339L43.2,211.3l-10.8-30L24,158.2c-6.1-16.9,2.6-35.5,19.5-41.6
		l28.4-10.3l8.3-3l18.2-6.6l12.6-4.5l55.2-19.9l24.3-8.8l67.7-24.4l18.2-6.6l8.3-3L313,19.3c16.9-6.1,35.5,2.6,41.6,19.5l8.4,23.2
		l10.8,30L392,142.5z"/>
	<path id="XMLID_634_" class="st4" d="M392,242.4v160.4c-21.2,20.1-46.8,36.2-76,46.8c-29.5,10.6-59.8,14.5-89.2,12.5
		c-1.6-0.1-3.2-0.2-4.8-0.4c-1.6-0.1-3.2-0.3-4.7-0.5c-0.8-0.1-1.6-0.2-2.4-0.3c-8.6-1.1-17.2-2.7-25.6-4.8
		c-8.3-2.1-16.5-4.6-24.6-7.6l-24.6-68.3L76.6,204.2c-3.8-10.6,1.7-22.4,12.3-26.2l33.6-12.1l12.6-4.5l148.6-53.6l33.6-12.1
		c10.6-3.8,22.4,1.7,26.2,12.3L392,242.4z"/>
	<path id="XMLID_584_" class="st5" d="M263,46.7l19.5,54.1c3.6,10.1-1.6,21.2-11.7,24.9l-127.1,45.9c-10.1,3.6-21.2-1.6-24.9-11.7
		l-19.5-54.1c-3.6-10.1,1.6-21.2,11.7-24.9l32-11.5c1.6-13.7,10.7-25.9,24.5-30.9c2.1-0.8,4.3-1.3,6.5-1.7c10.3-1.8,20.6,0.9,28.7,7
		c0.1,0.1,0.2,0.1,0.3,0.2c0.8,0.6,1.5,1.2,2.2,1.9c0.3,0.3,0.6,0.6,0.9,0.8l32-11.5C248.3,31.3,259.4,36.6,263,46.7z"/>
	<path id="XMLID_583_" class="st6" d="M263,46.7l19.5,54.1c3.6,10.1-1.6,21.2-11.7,24.9l-114.5,41.3c-10.1,3.6-21.2-1.6-24.9-11.7
		L112,101.2c-3.6-10.1,1.6-21.2,11.7-24.9l19.4-7c1.6-13.7,10.7-25.9,24.5-30.9c2.1-0.8,4.3-1.3,6.5-1.7c10.3-1.8,20.6,0.9,28.7,7
		c0.1,0.1,0.2,0.1,0.3,0.2c0.8,0.7,1.6,1.3,2.2,1.9c0.3,0.3,0.6,0.6,0.9,0.8l32-11.5C248.3,31.3,259.4,36.6,263,46.7z"/>
	<circle id="XMLID_582_" class="st3" cx="178" cy="67.1" r="12.9"/>
	<path id="XMLID_560_" class="st5" d="M243,105.3L152.3,138c-4.9,1.8-10.2-0.8-12-5.6l0,0c-1.8-4.9,0.8-10.2,5.6-12l90.6-32.7
		c4.9-1.8,10.2,0.8,12,5.6l0,0C250.3,98.2,247.8,103.6,243,105.3z"/>
	<path id="XMLID_556_" class="st7" d="M196.8,258.5l-19.1-52.9c-1.7-4.6-6.8-7-11.4-5.4l-52.9,19.1c-4.6,1.7-7,6.8-5.4,11.4
		l19.1,52.9c1.7,4.6,6.8,7,11.4,5.4l52.9-19.1C196.1,268.3,198.4,263.2,196.8,258.5z M140.9,269.2l-13-36.1l36.1-13l13,36.1
		L140.9,269.2z"/>
	<g id="XMLID_553_">
		<path id="XMLID_555_" class="st8" d="M260.7,196.6l-52.9,19.1c-4.6,1.7-9.7-0.7-11.4-5.4c-1.7-4.6,0.7-9.7,5.4-11.4l52.9-19.1
			c4.6-1.7,9.7,0.7,11.4,5.4C267.8,189.8,265.4,194.9,260.7,196.6z"/>
		<path id="XMLID_554_" class="st8" d="M338,205.7l-118.3,42.7c-4.6,1.7-9.7-0.7-11.4-5.4s0.7-9.7,5.4-11.4l118.3-42.7
			c4.6-1.7,9.7,0.7,11.4,5.4S342.6,204,338,205.7z"/>
	</g>
	<path id="XMLID_550_" class="st7" d="M229.5,349.2l-19.1-52.9c-0.7-2-2.1-3.7-3.9-4.7c-2.2-1.3-4.9-1.6-7.5-0.7l-10.7,3.9
		L146.1,310c-4.6,1.7-7,6.8-5.4,11.4l0.5,1.4l2.6,7.3l15.9,44.2c1.7,4.6,6.8,7,11.4,5.4l52.9-19.1
		C228.8,358.9,231.2,353.8,229.5,349.2z M200.9,350l-20.3,7.3l-7,2.5l-3.8-10.5l-9.3-25.6l3.1-1.1l22.7-8.2l10.3-3.7l6.3,17.5
		l6.7,18.5L200.9,350z"/>
	<g id="XMLID_546_">
		<path id="XMLID_549_" class="st8" d="M293.4,287.2l-52.9,19.1c-4.6,1.7-9.7-0.7-11.4-5.4c-1.7-4.6,0.7-9.7,5.4-11.4l52.9-19.1
			c4.6-1.7,9.7,0.7,11.4,5.4C300.5,280.4,298.1,285.5,293.4,287.2z"/>
		<path id="XMLID_548_" class="st8" d="M370.7,296.3L252.4,339c-4.6,1.7-9.7-0.7-11.4-5.4c-1.7-4.6,0.7-9.7,5.4-11.4l118.3-42.7
			c4.6-1.7,9.7,0.7,11.4,5.4C377.7,289.5,375.3,294.6,370.7,296.3z"/>
	</g>
	<path id="XMLID_542_" class="st7" d="M262.2,439.8l-13.2-36.7l-5.8-16.2c-1.7-4.6-6.8-7-11.4-5.4l-46.1,16.6l-6.8,2.4
		c-4.6,1.7-7.2,6.8-5.6,11.4l15.7,44.1v0c9,2.1,17.1,3.7,25.8,4.8c0.8,0.1,1.7,0.2,2.5,0.3c1.6,0.2,3.2,0.3,4.8,0.5
		c1.6,0.1,3.2,0.3,4.8,0.4l30-10.8C261.4,449.5,263.9,444.4,262.2,439.8z M206.3,450.5l-13-36.1l29.6-10.7l6.5-2.4l0.9,2.5
		l12.1,33.5L206.3,450.5z"/>
	<g id="XMLID_538_">
		<path id="XMLID_541_" class="st8" d="M326.1,377.8l-52.9,19.1c-4.6,1.7-9.7-0.7-11.4-5.4c-1.7-4.6,0.7-9.7,5.4-11.4l52.9-19.1
			c4.6-1.7,9.7,0.7,11.4,5.4C333.2,371,330.8,376.1,326.1,377.8z"/>
		<path id="XMLID_596_" class="st8" d="M392,372.1v19l-106.9,38.6c-4.6,1.7-9.8-0.7-11.4-5.4c-1.7-4.6,0.7-9.8,5.4-11.4L392,372.1z"
			/>
	</g>
	<path id="XMLID_536_" class="st1" d="M194.5,362.7c-2.8,1-5.9,0.6-8.3-1.2l-41.4-30.6c-4-2.9-4.8-8.5-1.9-12.5
		c2.9-4,8.5-4.8,12.5-1.9l28.7,21.2l5.7-59c0.5-4.9,4.8-8.5,9.7-8c4.9,0.5,8.5,4.8,8,9.7l-7.2,74.7c-0.3,3.2-2.3,6-5.2,7.3
		C194.9,362.6,194.7,362.6,194.5,362.7z"/>
</g>
</svg>
