 <svg version="1.1" id="Capa_1" xmlns="http://www.w3.org/2000/svg"
                        xmlns:xlink="http://www.w3.org/1999/xlink" x="0px" y="0px" viewBox="106 -106 512 512"
                        style="enable-background:new 106 -106 512 512;" xml:space="preserve">
                        <style type="text/css">
                            .st0 {
                                fill: #FFFFFF;
                            }
                        </style>
                        <g>
                            <g>
                                <g>
                                    <path class="st0"
                                        d="M436.7,16.7c23.5,0,42.7-19.2,42.7-42.7s-19.2-42.7-42.7-42.7S394-49.5,394-26S413.2,16.7,436.7,16.7z" />
                                    <path class="st0" d="M212.7,155.3C154,155.3,106,203.3,106,262s48,106.7,106.7,106.7s106.7-48,106.7-106.7
                               S271.3,155.3,212.7,155.3z M212.7,336.7c-41.6,0-74.7-33.1-74.7-74.7s33.1-74.7,74.7-74.7s74.7,33.1,74.7,74.7
                               S254.3,336.7,212.7,336.7z" />
                                    <path class="st0" d="M510.3,132.9V90.3c-32,0-58.7-11.7-77.9-30.9l-41.6-40.5C384.4,11.3,373.7,6,362,6
                               c-11.7,0-22.4,4.3-29.9,12.8l-58.7,58.7c-7.5,7.5-12.8,18.1-12.8,29.9s5.3,22.4,12.8,30.9l67.2,59.7v106.7h42.7V171.3l-46.9-46.9
                               l50.1-51.2l16,16C429.2,116.9,466.5,132.9,510.3,132.9z" />
                                    <path class="st0"
                                        d="M511.3,155.3c-58.7,0-106.7,48-106.7,106.7s48,106.7,106.7,106.7S618,320.7,618,262S570,155.3,511.3,155.3z
                                M511.3,336.7c-41.6,0-74.7-33.1-74.7-74.7s33.1-74.7,74.7-74.7S586,220.4,586,262S552.9,336.7,511.3,336.7z" />
                                </g>
                            </g>
                        </g>
                    </svg>
