<?xml version="1.0" encoding="utf-8"?>
<!-- Generator: Adobe Illustrator 19.0.0, SVG Export Plug-In . SVG Version: 6.00 Build 0)  -->
<svg version="1.1" id="Layer_1" xmlns="http://www.w3.org/2000/svg" xmlns:xlink="http://www.w3.org/1999/xlink" x="0px" y="0px"
	 viewBox="0 0 470.7 895" style="enable-background:new 0 0 470.7 895;" xml:space="preserve">
<style type="text/css">
	.st0{opacity:0.24;fill:#FFDC32;}
	.st1{opacity:0.53;}
	.st2{fill:none;stroke:#FFDC32;stroke-width:6;stroke-linecap:round;stroke-miterlimit:10;}
	.st3{fill:none;stroke:#FFDC32;stroke-width:6;stroke-linecap:round;stroke-miterlimit:10;stroke-dasharray:12.1904,12.1904;}
	.st4{opacity:0.54;fill:none;stroke:#FFDC32;stroke-width:4;stroke-miterlimit:10;}
	.st5{opacity:0.54;fill:#FFDC32;}
</style>
<g id="XMLID_477_">
	<path id="XMLID_303_" class="st0" d="M470.8,881.9c-234.2,0-424-189.8-424-424s189.8-424,424-424"/>
	<g id="XMLID_334_" class="st1">
		<g id="XMLID_278_">
			<path id="XMLID_281_" class="st2" d="M20.9,464c0-2,0-4,0-6"/>
			<path id="XMLID_280_" class="st3" d="M21.3,445.8C30.7,209.7,221.9,20.4,458.8,14.2"/>
			<path id="XMLID_279_" class="st2" d="M464.9,14c2,0,4,0,6,0"/>
		</g>
	</g>
	<polyline id="XMLID_253_" class="st4" points="332.5,56.5 275.9,266.4 470.8,333.7 	"/>
	<polyline id="XMLID_252_" class="st4" points="291.3,73.2 223.9,300.4 64,337.5 	"/>
	<path id="XMLID_289_" class="st4" d="M470.8,674.9"/>
	<polyline id="XMLID_251_" class="st4" points="258.9,825.1 391.9,710.9 470.8,784.9 	"/>
	<polyline id="XMLID_225_" class="st4" points="50.6,514.1 305.9,519.9 373.4,687.9 221.5,800.8 	"/>
	<polyline id="XMLID_224_" class="st4" points="55.8,370.4 381.9,380.4 470.8,513.6 	"/>
	<circle id="XMLID_223_" class="st5" cx="262.9" cy="325.8" r="24"/>
	<polyline id="XMLID_269_" class="st4" points="303.9,333.7 399.9,349.8 470.9,398.4 	"/>
	<line id="XMLID_291_" class="st4" x1="46.9" y1="442" x2="299.9" y2="444.4"/>
	<line id="XMLID_292_" class="st4" x1="470.8" y1="713.9" x2="364.8" y2="472.9"/>
</g>
</svg>
