<?xml version="1.0" encoding="utf-8"?>
<!-- Generator: Adobe Illustrator 19.0.0, SVG Export Plug-In . SVG Version: 6.00 Build 0)  -->
<svg version="1.1" id="Layer_1" xmlns="http://www.w3.org/2000/svg" xmlns:xlink="http://www.w3.org/1999/xlink" x="0px" y="0px"
	 viewBox="-321 59.4 315.9 443.6" style="enable-background:new -321 59.4 315.9 443.6;" xml:space="preserve">
<style type="text/css">
	.st0{fill:#E5D00E;}
	.st1{fill:#C9B20A;}
</style>
<polygon id="XMLID_1111_" class="st0" points="-237.1,59.6 -310.2,174.3 -101.7,232 -5.1,478.2 -5.1,59.4 "/>
<g>
	<path class="st1" d="M-206.6,117.9c2.1,1.7,3.4,3.9,4,6.8h-6.4c-0.5-1.2-1.2-2.1-2.2-2.7c-1-0.7-2.1-1-3.5-1
		c-1.8,0-3.2,0.6-4.3,1.9c-1.1,1.3-1.6,3-1.6,5.2c0,2.2,0.5,3.9,1.6,5.2s2.5,1.9,4.3,1.9c1.3,0,2.5-0.3,3.5-1s1.7-1.6,2.2-2.7h6.4
		c-0.6,2.8-2,5.1-4,6.8s-4.7,2.5-7.9,2.5c-2.4,0-4.6-0.5-6.4-1.6c-1.8-1.1-3.3-2.6-4.3-4.5c-1-1.9-1.5-4.1-1.5-6.6
		c0-2.5,0.5-4.7,1.5-6.6c1-1.9,2.4-3.4,4.3-4.5c1.8-1.1,4-1.6,6.4-1.6C-211.3,115.4-208.7,116.2-206.6,117.9z"/>
	<path class="st1" d="M-176.2,115.6l-8.6,16.7v8.3h-6.1v-8.3l-8.6-16.7h6.9l4.8,10.2l4.8-10.2H-176.2z"/>
	<path class="st1" d="M-153.2,117.9c2.1,1.7,3.4,3.9,4,6.8h-6.4c-0.5-1.2-1.2-2.1-2.2-2.7c-1-0.7-2.1-1-3.5-1
		c-1.8,0-3.2,0.6-4.3,1.9c-1.1,1.3-1.6,3-1.6,5.2c0,2.2,0.5,3.9,1.6,5.2c1.1,1.3,2.5,1.9,4.3,1.9c1.3,0,2.5-0.3,3.5-1
		c1-0.7,1.7-1.6,2.2-2.7h6.4c-0.6,2.8-2,5.1-4,6.8c-2.1,1.7-4.7,2.5-7.9,2.5c-2.4,0-4.6-0.5-6.4-1.6c-1.8-1.1-3.3-2.6-4.3-4.5
		c-1-1.9-1.5-4.1-1.5-6.6c0-2.5,0.5-4.7,1.5-6.6c1-1.9,2.4-3.4,4.3-4.5c1.8-1.1,4-1.6,6.4-1.6C-157.9,115.4-155.3,116.2-153.2,117.9
		z"/>
	<path class="st1" d="M-138.3,135.9h8v4.6h-14.1v-25h6V135.9z"/>
	<path class="st1" d="M-120,120.4v5.2h8.4v4.6h-8.4v5.5h9.5v4.8h-15.5v-25h15.5v4.8H-120z"/>
	<path class="st1" d="M-88.8,137.2c-0.7,1.1-1.7,2-3,2.6c-1.3,0.7-2.9,1-4.7,1c-2.8,0-5.1-0.7-6.9-2c-1.8-1.4-2.8-3.3-3-5.7h6.4
		c0.1,0.9,0.4,1.7,1,2.2c0.6,0.5,1.3,0.8,2.2,0.8c0.8,0,1.4-0.2,1.8-0.6c0.4-0.4,0.7-1,0.7-1.7c0-0.6-0.2-1.2-0.6-1.6
		c-0.4-0.4-0.9-0.8-1.5-1c-0.6-0.3-1.5-0.6-2.5-1c-1.6-0.5-2.9-1.1-3.9-1.6c-1-0.5-1.9-1.3-2.6-2.3c-0.7-1-1.1-2.3-1.1-3.9
		c0-1.5,0.4-2.8,1.1-3.8c0.8-1.1,1.8-1.9,3.1-2.5c1.3-0.6,2.9-0.9,4.6-0.9c2.8,0,5,0.7,6.6,2c1.6,1.3,2.6,3.1,2.8,5.4h-6.5
		c-0.1-0.8-0.4-1.5-0.9-2c-0.5-0.5-1.1-0.7-2-0.7c-0.7,0-1.3,0.2-1.7,0.6c-0.4,0.4-0.7,0.9-0.7,1.7c0,0.6,0.2,1.1,0.6,1.5
		s0.9,0.7,1.5,1c0.6,0.3,1.4,0.6,2.5,1c1.6,0.5,2.9,1.1,3.9,1.6c1,0.5,1.9,1.3,2.6,2.3c0.7,1,1.1,2.3,1.1,4
		C-87.8,134.9-88.1,136.1-88.8,137.2z"/>
	<path class="st1" d="M-77,131.8v8.8h-6v-25h9.8c3,0,5.2,0.7,6.8,2.2c1.6,1.5,2.3,3.5,2.3,5.9c0,1.6-0.3,2.9-1,4.1
		c-0.7,1.2-1.7,2.2-3.1,2.9c-1.4,0.7-3,1-5,1H-77z M-70.2,123.8c0-2.2-1.2-3.3-3.6-3.3H-77v6.5h3.1C-71.5,127-70.2,125.9-70.2,123.8
		z"/>
	<path class="st1" d="M-44.3,136h-9.4l-1.6,4.6h-6.4l9.1-24.8h7l9.1,24.8h-6.4L-44.3,136z M-45.8,131.4l-3.1-9.2l-3.1,9.2H-45.8z"/>
	<path class="st1" d="M-10.4,140.6h-6l-10.1-15.3v15.3h-6v-25h6l10.1,15.5v-15.5h6V140.6z"/>
</g>
</svg>
