<?xml version="1.0" encoding="utf-8"?>
<!-- Generator: Adobe Illustrator 19.0.0, SVG Export Plug-In . SVG Version: 6.00 Build 0)  -->
<svg version="1.1" id="Layer_1" xmlns="http://www.w3.org/2000/svg" xmlns:xlink="http://www.w3.org/1999/xlink" x="0px" y="0px"
	 viewBox="0 0 960 269" style="enable-background:new 0 0 960 269;" xml:space="preserve">
<style type="text/css">
	.st0{opacity:0.62;}
	.st1{fill:#FFDC32;}
</style>
<g id="XMLID_119_" class="st0">
	<path id="XMLID_8_" class="st1" d="M-0.6,194.3l8.6-8.5c2.9-2.8,5.8-5.6,8.7-8.4l8.7-8.4c2.9-2.8,5.9-5.6,8.8-8.3L51.9,144
		l17.7-16.5l17.8-16.4l17.8-16.4l17.9-16.3l18-16.2l3.2-2.9l4.1,1.7l28.1,11.3l28.1,11.4l28.1,11.5l14,5.8l14,5.9
		c9.3,3.9,18.6,7.9,27.9,11.9l13.9,6l13.9,6.1l27.7,12.3l27.7,12.4l5.3,2.4l-2.6,4.8l-12.3,22.9l-12.2,22.9l-6.1,11.5l-6,11.5
		l-6,11.5l-5.9,11.6l-3.1-3.9c7.7-1.9,15.3-3.9,23-5.9c7.6-2,15.3-4,22.9-6c15.3-4,30.5-8.1,45.7-12.3l22.8-6.3l22.8-6.4l22.8-6.5
		l22.8-6.6l45.5-13.1c7.6-2.2,15.2-4.4,22.8-6.5l22.8-6.4c7.6-2.2,15.2-4.2,22.8-6.4l22.8-6.3l45.7-12.5l-1.8,15L563.7,98.7
		l-20-10.8l22.1-5.8c12.8-3.3,25.7-6.6,38.5-9.8l38.5-9.7l38.6-9.5l19.3-4.7l19.3-4.7l38.6-9.3l38.7-9.2l38.7-9.1l38.7-9l6.7-1.5
		l1.4,6.5l4.1,19.6l4,19.6l8.1,39.2l7.9,39.2l3.9,19.6l3.9,19.6l-1.7-2.2l11.9,6.5l11.9,6.5l11.9,6.6l11.8,6.6
		c0.4,0.2,0.6,0.7,0.3,1.2c-0.2,0.4-0.7,0.5-1.1,0.4l-12.4-5.4l-12.4-5.4l-12.4-5.5l-12.4-5.5l-1.3-0.6l-0.4-1.6l-4.9-19.4
		l-4.8-19.4l-9.7-38.8l-9.5-38.8l-4.8-19.4l-4.7-19.4l8,4.9l-38.4,10.3l-38.4,10.2l-38.4,10.1l-38.4,10l-19.2,5l-19.2,4.9l-38.5,9.8
		L608.7,90c-12.9,3.2-25.7,6.4-38.6,9.5l2.1-16.5L694,150.3l18.1,10l-19.9,5l-45.9,11.5l-23,5.7c-7.7,1.9-15.3,3.8-23,5.6l-23,5.6
		c-7.7,1.9-15.4,3.6-23.1,5.5L508,210.1l-23.1,5.4l-23,5.5l-23,5.6l-23,5.7c-15.3,3.8-30.6,7.7-45.9,11.7c-7.6,2-15.3,4-22.9,6
		c-7.6,2-15.3,4.1-22.9,6.1l-5.8,1.6l2.6-5.4l5.6-11.7l5.6-11.7l5.5-11.7l5.5-11.8l10.9-23.6l10.8-23.6l2.7,7.2l-28.3-10.9l-28.3-11
		l-14.1-5.5l-14.1-5.6c-9.4-3.8-18.8-7.5-28.1-11.4l-14-5.8l-14-5.8l-28-11.7l-27.9-11.8L143,73.9l7.3-1.2l-18.5,15.7L113.3,104
		l-18.6,15.5l-18.6,15.4l-18.7,15.3l-18.8,15.2c-3.1,2.5-6.3,5.1-9.4,7.6l-9.5,7.5c-3.2,2.5-6.3,5-9.5,7.5l-9.6,7.4
		c-0.4,0.3-0.9,0.2-1.2-0.1C-0.9,195.1-0.9,194.6-0.6,194.3z"/>
</g>
</svg>
